<svg width="11" height="11" viewBox="0 0 11 11" fill="none" xmlns="http://www.w3.org/2000/svg">
<path d="M5.58239 0.260254C2.64211 0.260254 0.25 2.65236 0.25 5.59264C0.25 8.53292 2.64211 10.925 5.58239 10.925C8.52267 10.925 10.9148 8.53292 10.9148 5.59264C10.9148 2.65236 8.52267 0.260254 5.58239 0.260254ZM5.58239 9.85856C3.23027 9.85856 1.31648 7.94476 1.31648 5.59264C1.31648 3.24053 3.23027 1.32673 5.58239 1.32673C7.93451 1.32673 9.8483 3.24053 9.8483 5.59264C9.8483 7.94476 7.93451 9.85856 5.58239 9.85856Z" fill="black"/>
<path d="M6.11531 2.92627H5.04883V6.1257H8.24826V5.05923H6.11531V2.92627Z" fill="black"/>
</svg>
