<svg width="32" height="31" viewBox="0 0 32 31" fill="none" xmlns="http://www.w3.org/2000/svg">
<path d="M31.2151 7.02725C30.7197 5.81831 30.0053 4.72278 29.112 3.80199C28.218 2.87845 27.164 2.14453 26.0073 1.64013C24.8078 1.11502 23.5213 0.846242 22.2224 0.849393C20.4002 0.849393 18.6224 1.37525 17.0774 2.36854C16.7078 2.60615 16.3566 2.86713 16.024 3.15148C15.6913 2.86713 15.3402 2.60615 14.9706 2.36854C13.4256 1.37525 11.6477 0.849393 9.82555 0.849393C8.51342 0.849393 7.24194 1.11427 6.0407 1.64013C4.88011 2.14651 3.8341 2.87492 2.93594 3.80199C2.04146 4.72174 1.32692 5.81753 0.832831 7.02725C0.319067 8.28542 0.0566406 9.62148 0.0566406 10.9965C0.0566406 12.2936 0.307979 13.6453 0.806958 15.0203C1.22462 16.1694 1.8234 17.3613 2.5885 18.565C3.80083 20.4697 5.46779 22.4563 7.53764 24.4702C10.9677 27.8084 14.3644 30.1144 14.5086 30.2079L15.3845 30.7999C15.7726 31.0609 16.2716 31.0609 16.6597 30.7999L17.5357 30.2079C17.6799 30.1105 21.0729 27.8084 24.5066 24.4702C26.5765 22.4563 28.2434 20.4697 29.4558 18.565C30.2209 17.3613 30.8233 16.1694 31.2373 15.0203C31.7363 13.6453 31.9876 12.2936 31.9876 10.9965C31.9913 9.62148 31.7289 8.28542 31.2151 7.02725ZM16.024 27.7188C16.024 27.7188 2.86571 18.8337 2.86571 10.9965C2.86571 7.02725 5.98156 3.80978 9.82555 3.80978C12.5274 3.80978 14.8708 5.39904 16.024 7.7206C17.1772 5.39904 19.5205 3.80978 22.2224 3.80978C26.0664 3.80978 29.1823 7.02725 29.1823 10.9965C29.1823 18.8337 16.024 27.7188 16.024 27.7188Z" fill="white"/>
</svg>
