<svg width="74" height="74" viewBox="0 0 74 74" fill="none" xmlns="http://www.w3.org/2000/svg">
<circle cx="38.3421" cy="38.6478" r="19.4418" fill="white"/>
<path d="M37.0428 0.240234C16.8899 0.240234 0.549316 16.5894 0.549316 36.7528C0.549316 56.9162 16.8899 73.2654 37.0428 73.2654C57.1957 73.2654 73.5363 56.9162 73.5363 36.7528C73.5363 16.5894 57.1957 0.240234 37.0428 0.240234ZM48.781 37.3152L30.9904 50.2657C30.8929 50.3359 30.7779 50.3777 30.6582 50.3867C30.5384 50.3957 30.4185 50.3715 30.3116 50.3168C30.2047 50.262 30.1149 50.1789 30.0522 50.0764C29.9894 49.9739 29.9561 49.8561 29.9559 49.736V23.8512C29.9555 23.7308 29.9885 23.6126 30.0511 23.5098C30.1137 23.4069 30.2035 23.3235 30.3107 23.2686C30.4178 23.2138 30.538 23.1897 30.658 23.199C30.778 23.2083 30.8931 23.2507 30.9904 23.3214L48.781 36.2638C48.8651 36.3233 48.9336 36.4021 48.981 36.4935C49.0283 36.585 49.053 36.6865 49.053 36.7895C49.053 36.8925 49.0283 36.994 48.981 37.0855C48.9336 37.1769 48.8651 37.2557 48.781 37.3152Z" fill="#F05E0C"/>
</svg>
