<svg width="54" height="53" viewBox="0 0 54 53" fill="none" xmlns="http://www.w3.org/2000/svg">
<path d="M27.0398 48.5038C21.1619 48.5038 15.5247 46.1688 11.3684 42.0125C7.21204 37.8562 4.87704 32.219 4.87704 26.3411C4.87704 20.4631 7.21204 14.826 11.3684 10.6696C15.5247 6.51331 21.1619 4.17831 27.0398 4.17831C32.9177 4.17831 38.5549 6.51331 42.7112 10.6696C46.8675 14.826 49.2025 20.4631 49.2025 26.3411C49.2025 32.219 46.8675 37.8562 42.7112 42.0125C38.5549 46.1688 32.9177 48.5038 27.0398 48.5038ZM27.0398 51.6699C33.7574 51.6699 40.1999 49.0013 44.95 44.2513C49.7001 39.5012 52.3686 33.0587 52.3686 26.3411C52.3686 19.6234 49.7001 13.1809 44.95 8.43086C40.1999 3.68078 33.7574 1.01221 27.0398 1.01221C20.3222 1.01221 13.8797 3.68078 9.12959 8.43086C4.37951 13.1809 1.71094 19.6234 1.71094 26.3411C1.71094 33.0587 4.37951 39.5012 9.12959 44.2513C13.8797 49.0013 20.3222 51.6699 27.0398 51.6699V51.6699Z" fill="black" stroke="black" stroke-width="1.58305"/>
<path d="M21.5655 17.0184C21.8245 16.8851 22.1152 16.8258 22.4056 16.847C22.6961 16.8682 22.9751 16.9692 23.2119 17.1387L34.2933 25.054C34.4985 25.2004 34.6658 25.3938 34.7812 25.6179C34.8966 25.842 34.9568 26.0905 34.9568 26.3426C34.9568 26.5947 34.8966 26.8432 34.7812 27.0673C34.6658 27.2914 34.4985 27.4848 34.2933 27.6312L23.2119 35.5465C22.9752 35.7159 22.6963 35.8168 22.406 35.838C22.1157 35.8592 21.8251 35.8 21.5663 35.6668C21.3074 35.5336 21.0903 35.3316 20.9388 35.0831C20.7873 34.8345 20.7073 34.549 20.7075 34.2579V18.4273C20.7072 18.1363 20.7871 17.8508 20.9385 17.6023C21.0899 17.3537 21.3068 17.1517 21.5655 17.0184V17.0184Z" fill="black"/>
</svg>
