<svg width="26" height="26" viewBox="0 0 26 26" fill="none" xmlns="http://www.w3.org/2000/svg">
<path d="M25.5334 22.6268L20.8083 17.9181C22.3328 15.9769 23.16 13.5797 23.157 11.112C23.157 8.91424 22.5049 6.76585 21.2833 4.9385C20.0616 3.11114 18.3253 1.68689 16.2938 0.845854C14.2623 0.00481461 12.0268 -0.21524 9.8702 0.213518C7.71356 0.642276 5.73256 1.70059 4.17771 3.25463C2.62286 4.80866 1.564 6.78863 1.13502 8.94414C0.706035 11.0997 0.926204 13.3339 1.76768 15.3643C2.60916 17.3948 4.03415 19.1302 5.86246 20.3512C7.69077 21.5722 9.84028 22.224 12.0392 22.224C14.5082 22.227 16.9066 21.4003 18.8488 19.8765L23.56 24.5991C23.6892 24.7293 23.8429 24.8327 24.0122 24.9032C24.1816 24.9737 24.3632 25.01 24.5467 25.01C24.7301 25.01 24.9118 24.9737 25.0811 24.9032C25.2505 24.8327 25.4042 24.7293 25.5334 24.5991C25.6636 24.47 25.767 24.3164 25.8376 24.1471C25.9081 23.9779 25.9445 23.7963 25.9445 23.613C25.9445 23.4296 25.9081 23.248 25.8376 23.0788C25.767 22.9095 25.6636 22.7559 25.5334 22.6268ZM3.70084 11.112C3.70084 9.46367 4.18987 7.85238 5.1061 6.48187C6.02233 5.11135 7.3246 4.04316 8.84823 3.41238C10.3719 2.78161 12.0484 2.61657 13.6659 2.93813C15.2834 3.2597 16.7691 4.05344 17.9353 5.21897C19.1014 6.38449 19.8956 7.86947 20.2173 9.4861C20.539 11.1027 20.3739 12.7784 19.7428 14.3013C19.1117 15.8241 18.0429 17.1257 16.6717 18.0414C15.3005 18.9572 13.6883 19.446 12.0392 19.446C9.82771 19.446 7.70682 18.5679 6.14308 17.005C4.57934 15.4421 3.70084 13.3223 3.70084 11.112Z" fill="black"/>
</svg>
